<?xml version="1.0" standalone="no"?>
<!DOCTYPE svg PUBLIC "-//W3C//DTD SVG 20010904//EN"
 "http://www.w3.org/TR/2001/REC-SVG-20010904/DTD/svg10.dtd">
<svg version="1.0" xmlns="http://www.w3.org/2000/svg"
 width="180.000000pt" height="180.000000pt" viewBox="0 0 180.000000 180.000000"
 preserveAspectRatio="xMidYMid meet">
<metadata>
Created by potrace 1.16, written by Peter Selinger 2001-2019
</metadata>
<g transform="translate(0.000000,180.000000) scale(0.100000,-0.100000)"
fill="#000000" stroke="none">
<path d="M471 1510 c-7 -4 -23 -5 -37 -2 -18 3 -34 -5 -64 -36 -42 -42 -58
-82 -17 -44 33 31 38 27 16 -15 -19 -37 -28 -102 -10 -74 7 11 12 9 22 -10
l12 -24 10 29 10 29 18 -24 19 -24 0 35 c0 42 26 84 46 76 8 -3 26 -1 40 4 14
6 35 8 48 4 38 -9 30 -47 -28 -133 -106 -155 -174 -462 -135 -606 7 -27 27
-56 60 -86 27 -26 49 -53 48 -60 0 -8 -4 -5 -8 6 -5 13 -8 -1 -7 -40 1 -33 5
-65 9 -72 4 -7 1 -26 -8 -42 -16 -32 -19 -59 -9 -85 9 -23 24 -20 24 5 0 19 3
18 29 -10 36 -38 43 -39 35 -4 -6 23 -4 25 11 19 10 -4 21 -2 25 5 6 8 13 8
29 0 18 -10 21 -9 21 9 0 32 -27 78 -50 85 -17 5 -18 10 -9 27 6 11 8 30 5 43
-3 13 -2 27 4 30 5 3 10 17 10 30 0 17 9 29 29 40 45 23 76 70 110 168 40 118
72 169 150 247 88 87 145 115 236 115 l70 0 18 -38 c11 -22 21 -70 24 -117 3
-44 9 -77 13 -75 4 3 10 -5 14 -18 5 -18 8 -20 16 -7 15 23 12 137 -6 210 -9
36 -17 86 -18 111 -2 59 -38 114 -108 170 -111 87 -215 122 -351 118 -62 -2
-100 1 -116 10 -12 7 -31 11 -42 8 -10 -3 -23 1 -29 9 -13 14 -157 18 -179 4z
m560 -94 l54 -25 -56 0 c-115 -2 -267 -57 -398 -145 -30 -20 -56 -34 -58 -32
-7 6 74 64 130 92 26 13 47 27 47 29 0 16 -121 -59 -209 -129 -8 -6 -6 6 7 31
35 68 128 132 261 179 87 31 154 31 222 0z m-12 -93 c-71 -4 -76 -5 -93 -33
-18 -31 -131 -126 -178 -149 -15 -8 -25 -18 -22 -23 7 -10 1 -10 -31 2 -18 7
-31 6 -43 -1 -14 -9 -25 -8 -49 4 -29 16 -31 15 -57 -11 -21 -23 -23 -31 -13
-41 10 -10 9 -11 -5 -6 -27 11 -22 23 25 67 82 77 218 153 330 183 29 7 88 13
132 12 l80 -1 -76 -3z m176 -82 c46 -21 80 -55 70 -70 -10 -17 -19 -13 -30 12
-14 31 -77 50 -148 44 -112 -10 -215 -84 -271 -195 -14 -28 -41 -115 -61 -194
-19 -79 -43 -154 -53 -168 -64 -86 -170 -92 -231 -14 -31 40 -25 50 9 15 56
-55 148 -54 198 3 25 28 33 53 55 170 37 194 84 289 180 358 76 55 208 73 282
39z m-490 -270 c-3 -6 3 -15 14 -20 55 -30 -43 -90 -161 -99 -114 -8 -139 8
-97 62 21 26 22 27 41 9 20 -17 21 -17 36 5 14 21 16 22 34 6 17 -16 19 -16
32 2 14 18 15 18 35 0 12 -11 21 -14 21 -8 0 7 9 21 20 32 21 21 35 27 25 11z"/>
</g>
</svg>
